<svg width="192" height="72" viewBox="0 0 192 72" fill="none" xmlns="http://www.w3.org/2000/svg">
<path d="M173.275 56.9951C172.841 56.9951 172.407 57.0371 171.966 57.1211C168.128 57.8425 165.606 61.5334 166.328 65.3713C166.965 68.7681 169.935 71.1353 173.261 71.1353C173.696 71.1353 174.13 71.0932 174.571 71.0092C178.409 70.2878 180.93 66.5969 180.209 62.759C179.572 59.3623 176.609 56.9951 173.275 56.9951Z" fill="#97B9E2" style="fill:#97B9E2;fill:color(display-p3 0.5922 0.7255 0.8863);fill-opacity:1;"/>
<path d="M130.876 32.0343C130.224 32.0343 129.559 32.0974 128.901 32.2164C123.123 33.302 119.313 38.8698 120.398 44.6478C121.358 49.7604 125.826 53.3322 130.855 53.3322C131.506 53.3322 132.171 53.2692 132.83 53.1501C138.608 52.0645 142.418 46.4967 141.332 40.7188C140.366 35.6062 135.897 32.0343 130.876 32.0343Z" fill="#C8D9F1" style="fill:#C8D9F1;fill:color(display-p3 0.7843 0.8510 0.9451);fill-opacity:1;"/>
<path d="M140.436 0C140.197 0 139.959 0.0210096 139.721 0.0700346C139.223 0.163834 138.748 0.354906 138.323 0.632337C137.898 0.909768 137.532 1.26813 137.246 1.68695C136.96 2.10577 136.759 2.57686 136.655 3.07331C136.551 3.56976 136.546 4.08185 136.64 4.58034C136.99 6.43628 138.608 7.73194 140.429 7.73194C140.667 7.73194 140.905 7.71093 141.143 7.66191C141.641 7.56811 142.117 7.37704 142.541 7.09961C142.966 6.82218 143.332 6.46382 143.618 6.04499C143.904 5.62617 144.105 5.15509 144.209 4.65864C144.313 4.16219 144.318 3.6501 144.225 3.15161C143.874 1.29566 142.257 0 140.436 0Z" fill="#C87678" style="fill:#C87678;fill:color(display-p3 0.7843 0.4627 0.4706);fill-opacity:1;"/>
<path d="M104.577 12.1372C103.758 12.1372 102.924 12.2142 102.084 12.3683C94.8003 13.734 90.0099 20.7446 91.3756 28.0283C92.5872 34.4716 98.2181 38.9679 104.542 38.9679C105.362 38.9679 106.195 38.8908 107.036 38.7368C114.319 37.3711 119.11 30.3605 117.744 23.0768C116.532 16.6335 110.902 12.1372 104.577 12.1372Z" fill="#FFDC88" style="fill:#FFDC88;fill:color(display-p3 1.0000 0.8627 0.5333);fill-opacity:1;"/>
<path d="M178.115 13.65C171.538 13.65 166.209 18.9797 166.209 25.556C166.209 32.1324 171.538 37.4621 178.115 37.4621C184.691 37.4621 190.021 32.1324 190.021 25.556C190.021 18.9797 184.691 13.65 178.115 13.65Z" fill="#767AA5" style="fill:#767AA5;fill:color(display-p3 0.4627 0.4784 0.6471);fill-opacity:1;"/>
<path d="M126.246 15.8561C126.029 15.8561 125.812 15.8771 125.588 15.9191C123.669 16.2763 122.408 18.1252 122.766 20.0442C122.918 20.8524 123.348 21.5821 123.981 22.1075C124.614 22.6329 125.41 22.9212 126.232 22.9227C126.449 22.9227 126.667 22.9017 126.891 22.8597C128.81 22.5025 130.07 20.6535 129.713 18.7346C129.561 17.9259 129.132 17.1956 128.499 16.67C127.866 16.1444 127.069 15.8565 126.246 15.8561Z" fill="#B65C5F" style="fill:#B65C5F;fill:color(display-p3 0.7137 0.3608 0.3725);fill-opacity:1;"/>
<path d="M152.524 15.8561C151.34 15.8561 150.143 16.2063 149.099 16.9416C148.06 17.6709 147.281 18.7121 146.875 19.9142C146.468 21.1164 146.455 22.4168 146.837 23.6268C147.22 24.8368 147.978 25.8934 149.002 26.6433C150.026 27.3933 151.262 27.7974 152.531 27.7972C153.714 27.7972 154.912 27.447 155.956 26.7116C158.652 24.8207 159.303 21.0948 157.412 18.3984C156.257 16.7385 154.408 15.8561 152.524 15.8561Z" fill="#94A4D0" style="fill:#94A4D0;fill:color(display-p3 0.5804 0.6431 0.8157);fill-opacity:1;"/>
<path d="M160.123 41.258C158.939 41.258 157.741 41.6082 156.698 42.3436C155.659 43.0729 154.88 44.1141 154.474 45.3162C154.067 46.5183 154.054 47.8187 154.436 49.0287C154.819 50.2388 155.577 51.2954 156.601 52.0453C157.625 52.7952 158.861 53.1994 160.13 53.1991C161.313 53.1991 162.511 52.8489 163.554 52.1136C166.251 50.2226 166.902 46.4967 165.011 43.8003C164.462 43.0139 163.73 42.3721 162.879 41.9294C162.028 41.4867 161.082 41.2564 160.123 41.258Z" fill="#89A174" style="fill:#89A174;fill:color(display-p3 0.5373 0.6314 0.4549);fill-opacity:1;"/>
<path d="M67.7315 14.4414C66.3588 14.4414 64.9721 14.8476 63.7675 15.695C60.6439 17.8871 59.8875 22.2013 62.0796 25.3249C62.7172 26.2354 63.5654 26.9783 64.5519 27.4905C65.5384 28.0026 66.634 28.2688 67.7455 28.2664C69.1182 28.2664 70.5049 27.8602 71.7096 27.0128C74.8331 24.8207 75.5895 20.5065 73.3974 17.3829C72.7598 16.4724 71.9117 15.7294 70.9252 15.2173C69.9387 14.7051 68.8431 14.4389 67.7315 14.4414Z" fill="#C5D984" style="fill:#C5D984;fill:color(display-p3 0.7725 0.8510 0.5176);fill-opacity:1;"/>
<path d="M0 47.008C0 45.11 0.336169 43.2681 1.01552 41.4681C1.68786 39.6752 2.68237 38.0434 3.99203 36.5726C5.3017 35.1089 6.88451 33.9393 8.75446 33.0569C10.6244 32.1814 12.7325 31.7402 15.0927 31.7402C17.9081 31.7402 20.3454 32.3565 22.3974 33.5961C24.4495 34.8288 25.9692 36.4396 26.9427 38.4216L22.4184 41.5662C21.9002 40.4176 21.2278 39.5141 20.3944 38.8488C19.561 38.1905 18.6645 37.7142 17.698 37.4271C16.7315 37.1399 15.8071 36.9929 14.9176 36.9929C13.4258 36.9929 12.1232 37.294 11.0166 37.8963C9.91005 38.4986 8.99259 39.29 8.25721 40.2705C7.52184 41.251 6.96855 42.3366 6.59736 43.5482C6.22617 44.7528 6.03708 45.9784 6.03708 47.2111C6.03708 48.5347 6.25419 49.8164 6.68141 51.07C7.11563 52.3167 7.72494 53.4302 8.51634 54.3897C9.29264 55.3427 10.2616 56.1208 11.3598 56.6729C12.4664 57.2332 13.678 57.5133 15.0016 57.5133C15.9191 57.5133 16.8716 57.3592 17.8451 57.0371C18.8186 56.7219 19.7291 56.2177 20.5625 55.5313C21.3959 54.838 22.0683 53.9345 22.5865 52.8139L27.412 55.6574C26.7817 57.1842 25.7801 58.4728 24.4144 59.5373C23.0457 60.6041 21.5001 61.422 19.8481 61.9536C18.1673 62.4999 16.4934 62.773 14.8266 62.773C12.6414 62.773 10.6524 62.3178 8.85952 61.4143C7.07986 60.5224 5.49085 59.2926 4.18113 57.7935C2.86445 56.2919 1.82144 54.5709 1.09956 52.7089C0.371189 50.8389 0 48.9339 0 47.008ZM40.0464 62.5699V31.9643H45.9925V62.5699H40.0464ZM64.1457 31.9643L72.4239 55.5453L80.5691 31.9643H86.8163L75.2604 62.5699H69.5245L57.8845 31.9643H64.1457ZM98.7574 62.5699V31.9643H104.703V62.5699H98.7574ZM137.942 39.9834C137.739 39.7803 137.375 39.5141 136.843 39.185C136.311 38.8558 135.666 38.5196 134.903 38.1695C134.139 37.8263 133.313 37.5391 132.424 37.308C131.534 37.0769 130.631 36.9648 129.706 36.9648C128.095 36.9648 126.884 37.259 126.064 37.8473C125.245 38.4356 124.839 39.283 124.839 40.3966C124.839 41.23 125.098 41.8814 125.616 42.3716C126.134 42.8548 126.912 43.2751 127.941 43.6182C128.978 43.9614 130.266 44.3326 131.821 44.7318C133.831 45.215 135.575 45.8104 137.06 46.5107C138.538 47.2111 139.672 48.1285 140.464 49.2561C141.255 50.3837 141.647 51.8965 141.647 53.7804C141.647 55.3842 141.346 56.7569 140.744 57.8985C140.141 59.0401 139.315 59.9786 138.264 60.707C137.214 61.4353 136.009 61.9676 134.644 62.2968C133.278 62.6259 131.835 62.787 130.308 62.787C128.782 62.787 127.262 62.6259 125.742 62.3108C124.242 62.0024 122.776 61.5473 121.365 60.9521C119.971 60.3638 118.669 59.6494 117.464 58.816L120.09 53.6894C120.349 53.9485 120.812 54.2847 121.47 54.7049C122.128 55.1251 122.934 55.5383 123.886 55.9515C124.832 56.3717 125.868 56.7219 126.989 57.0091C128.109 57.2962 129.244 57.4433 130.392 57.4433C132.031 57.4433 133.25 57.1772 134.055 56.6519C134.861 56.1266 135.26 55.3492 135.26 54.3267C135.26 53.4092 134.938 52.6879 134.293 52.1556C133.649 51.6233 132.732 51.1681 131.555 50.7829C130.378 50.3977 128.985 49.9915 127.374 49.5573C125.42 49.011 123.802 48.4017 122.527 47.7153C121.246 47.029 120.286 46.1745 119.642 45.159C118.998 44.1435 118.676 42.8619 118.676 41.3141C118.676 39.227 119.18 37.4691 120.181 36.0544C121.19 34.6397 122.534 33.5681 124.236 32.8327C125.931 32.1044 127.815 31.7402 129.881 31.7402C131.317 31.7402 132.676 31.9013 133.957 32.2164C135.239 32.5316 136.437 32.9518 137.557 33.4631C138.678 33.9813 139.686 34.5416 140.576 35.1439L137.942 39.9834Z" fill="#034D6C" style="fill:#034D6C;fill:color(display-p3 0.0118 0.3020 0.4235);fill-opacity:1;"/>
<path d="M46.8249 25.9796C47.1658 23.8797 45.7397 21.9011 43.6398 21.5603C41.5399 21.2195 39.5613 22.6455 39.2205 24.7454C38.8797 26.8453 40.3057 28.8239 42.4056 29.1647C44.5055 29.5055 46.4841 28.0795 46.8249 25.9796Z" fill="#034D6C" style="fill:#034D6C;fill:color(display-p3 0.0118 0.3020 0.4235);fill-opacity:1;"/>
<path d="M105.538 25.9791C105.879 23.8792 104.453 21.9006 102.353 21.5598C100.253 21.219 98.2743 22.645 97.9334 24.7449C97.5926 26.8448 99.0186 28.8234 101.119 29.1642C103.218 29.505 105.197 28.079 105.538 25.9791Z" fill="#034D6C" style="fill:#034D6C;fill:color(display-p3 0.0118 0.3020 0.4235);fill-opacity:1;"/>
</svg>
